<svg width="394" height="574" viewBox="0 0 394 574" fill="none" xmlns="http://www.w3.org/2000/svg">
<circle cx="75" cy="294" r="75" fill="url(#paint0_linear_128_323)"/>
<path d="M33.4347 301L33.4347 286.455H39.0028C40.054 286.455 40.9276 286.62 41.6236 286.952C42.3243 287.278 42.8475 287.726 43.1932 288.294C43.5436 288.862 43.7188 289.506 43.7188 290.226C43.7188 290.818 43.6051 291.324 43.3778 291.746C43.1506 292.162 42.8452 292.501 42.4616 292.761C42.0781 293.022 41.6496 293.209 41.1761 293.322V293.464C41.6922 293.493 42.187 293.652 42.6605 293.94C43.1387 294.224 43.5294 294.627 43.8324 295.148C44.1354 295.669 44.2869 296.298 44.2869 297.037C44.2869 297.79 44.1046 298.467 43.7401 299.068C43.3755 299.665 42.8262 300.136 42.0923 300.482C41.3584 300.827 40.4351 301 39.3224 301H33.4347ZM36.0696 298.798H38.9034C39.8598 298.798 40.5488 298.616 40.9702 298.251C41.3963 297.882 41.6094 297.409 41.6094 296.831C41.6094 296.4 41.5028 296.012 41.2898 295.666C41.0767 295.316 40.7737 295.041 40.3807 294.842C39.9877 294.639 39.5189 294.537 38.9744 294.537H36.0696L36.0696 298.798ZM36.0696 292.641H38.6761C39.1307 292.641 39.5402 292.558 39.9048 292.392C40.2694 292.222 40.5559 291.982 40.7642 291.675C40.9773 291.362 41.0838 290.993 41.0838 290.567C41.0838 290.003 40.8849 289.539 40.4872 289.175C40.0942 288.81 39.5095 288.628 38.733 288.628H36.0696V292.641ZM46.4656 301L46.4656 290.091H49.0366V301H46.4656ZM47.7582 288.543C47.351 288.543 47.0006 288.408 46.707 288.138C46.4135 287.863 46.2667 287.534 46.2667 287.151C46.2667 286.762 46.4135 286.433 46.707 286.163C47.0006 285.889 47.351 285.751 47.7582 285.751C48.1701 285.751 48.5205 285.889 48.8093 286.163C49.1029 286.433 49.2496 286.762 49.2496 287.151C49.2496 287.534 49.1029 287.863 48.8093 288.138C48.5205 288.408 48.1701 288.543 47.7582 288.543ZM57.1278 290.091V292.08H50.8565V290.091H57.1278ZM52.4048 287.477H54.9759V297.719C54.9759 298.064 55.0279 298.33 55.1321 298.514C55.241 298.694 55.383 298.817 55.5582 298.884C55.7334 298.95 55.9276 298.983 56.1406 298.983C56.3016 298.983 56.4484 298.971 56.581 298.947C56.7183 298.924 56.8224 298.902 56.8935 298.884L57.3267 300.893C57.1894 300.941 56.9929 300.993 56.7372 301.05C56.4863 301.107 56.1785 301.14 55.8139 301.149C55.17 301.168 54.59 301.071 54.0739 300.858C53.5578 300.64 53.1482 300.304 52.8452 299.849C52.5469 299.395 52.4001 298.827 52.4048 298.145V287.477ZM62.3356 301L58.2305 286.455H61.0643L63.685 297.143H63.82L66.6183 286.455H69.1964L72.0018 297.151H72.1296L74.7504 286.455H77.5842L73.479 301H70.8796L67.9677 290.794H67.854L64.935 301H62.3356ZM81.3235 301.22C80.6322 301.22 80.0096 301.097 79.4556 300.851C78.9064 300.6 78.4708 300.231 78.1488 299.743C77.8316 299.255 77.6729 298.654 77.6729 297.939C77.6729 297.323 77.7866 296.814 78.0138 296.412C78.2411 296.009 78.5513 295.688 78.9442 295.446C79.3372 295.205 79.7799 295.022 80.2724 294.899C80.7695 294.771 81.2833 294.679 81.8136 294.622C82.4528 294.556 82.9712 294.497 83.369 294.445C83.7667 294.388 84.0555 294.303 84.2354 294.189C84.4201 294.071 84.5124 293.888 84.5124 293.642V293.599C84.5124 293.064 84.3538 292.65 84.0366 292.357C83.7193 292.063 83.2624 291.916 82.6658 291.916C82.0361 291.916 81.5366 292.054 81.1673 292.328C80.8027 292.603 80.5565 292.927 80.4286 293.301L78.0281 292.96C78.2174 292.297 78.5299 291.743 78.9656 291.298C79.4012 290.848 79.9338 290.512 80.5636 290.29C81.1933 290.062 81.8893 289.949 82.6516 289.949C83.1772 289.949 83.7004 290.01 84.2212 290.134C84.7421 290.257 85.2179 290.46 85.6488 290.744C86.0797 291.024 86.4253 291.405 86.6857 291.888C86.9509 292.371 87.0835 292.974 87.0835 293.699V301H84.6119V299.501H84.5266C84.3704 299.804 84.1502 300.089 83.8661 300.354C83.5868 300.614 83.234 300.825 82.8079 300.986C82.3865 301.142 81.8917 301.22 81.3235 301.22ZM81.9911 299.331C82.5072 299.331 82.9547 299.229 83.3335 299.026C83.7122 298.817 84.0034 298.543 84.207 298.202C84.4154 297.861 84.5195 297.489 84.5195 297.087V295.801C84.439 295.867 84.3017 295.929 84.1076 295.986C83.9182 296.043 83.7051 296.092 83.4684 296.135C83.2317 296.178 82.9973 296.215 82.7653 296.249C82.5333 296.282 82.332 296.31 82.1616 296.334C81.7781 296.386 81.4348 296.471 81.1317 296.589C80.8287 296.708 80.5896 296.874 80.4144 297.087C80.2392 297.295 80.1516 297.565 80.1516 297.896C80.1516 298.37 80.3245 298.727 80.6701 298.969C81.0157 299.21 81.4561 299.331 81.9911 299.331ZM92.2397 286.455V301H89.6687V286.455H92.2397ZM97.4545 286.455V301H94.8835V286.455H97.4545ZM104.928 301.213C103.834 301.213 102.89 300.986 102.094 300.531C101.303 300.072 100.695 299.423 100.269 298.585C99.8427 297.742 99.6296 296.75 99.6296 295.609C99.6296 294.487 99.8427 293.502 100.269 292.655C100.7 291.803 101.301 291.14 102.073 290.666C102.845 290.188 103.751 289.949 104.793 289.949C105.465 289.949 106.1 290.058 106.696 290.276C107.298 290.489 107.828 290.82 108.287 291.27C108.751 291.72 109.116 292.293 109.381 292.989C109.646 293.68 109.779 294.504 109.779 295.46V296.249H100.837V294.516H107.314C107.31 294.023 107.203 293.585 106.995 293.202C106.786 292.813 106.495 292.508 106.121 292.286C105.752 292.063 105.321 291.952 104.828 291.952C104.303 291.952 103.841 292.08 103.444 292.335C103.046 292.586 102.736 292.918 102.513 293.33C102.295 293.737 102.184 294.184 102.179 294.672V296.185C102.179 296.819 102.295 297.364 102.527 297.818C102.759 298.268 103.084 298.614 103.5 298.855C103.917 299.092 104.405 299.21 104.963 299.21C105.337 299.21 105.676 299.158 105.979 299.054C106.282 298.945 106.545 298.786 106.767 298.578C106.99 298.37 107.158 298.112 107.272 297.804L109.672 298.074C109.521 298.708 109.232 299.262 108.806 299.736C108.384 300.205 107.845 300.569 107.186 300.83C106.528 301.085 105.775 301.213 104.928 301.213ZM117.401 290.091V292.08H111.13V290.091H117.401ZM112.678 287.477H115.249V297.719C115.249 298.064 115.301 298.33 115.406 298.514C115.514 298.694 115.656 298.817 115.832 298.884C116.007 298.95 116.201 298.983 116.414 298.983C116.575 298.983 116.722 298.971 116.854 298.947C116.992 298.924 117.096 298.902 117.167 298.884L117.6 300.893C117.463 300.941 117.266 300.993 117.011 301.05C116.76 301.107 116.452 301.14 116.087 301.149C115.443 301.168 114.863 301.071 114.347 300.858C113.831 300.64 113.422 300.304 113.119 299.849C112.82 299.395 112.674 298.827 112.678 298.145V287.477Z" fill="#1E1E1E"/>
<circle cx="177.847" cy="59.8471" r="58" transform="rotate(-1.85491 177.847 59.8471)" fill="url(#paint1_linear_128_323)"/>
<path d="M166.44 57.2149L162.991 57.3265L162.662 47.1501L166.18 47.0361C167.19 47.0034 168.065 47.179 168.803 47.563C169.545 47.9435 170.124 48.5068 170.539 49.2527C170.955 49.9986 171.18 50.9 171.214 51.9567C171.248 53.0168 171.081 53.9341 170.711 54.7088C170.345 55.4834 169.799 56.0864 169.074 56.5177C168.351 56.949 167.473 57.1814 166.44 57.2149ZM164.783 55.6718L166.299 55.6227C167.008 55.5997 167.595 55.4514 168.06 55.1777C168.525 54.9006 168.869 54.4999 169.091 53.9754C169.312 53.4476 169.411 52.7944 169.385 52.0159C169.36 51.2375 169.22 50.5954 168.965 50.0896C168.71 49.5806 168.344 49.2061 167.869 48.9661C167.397 48.7228 166.816 48.6122 166.127 48.6345L164.557 48.6854L164.783 55.6718ZM175.252 57.0837C174.769 57.0993 174.33 57.0273 173.937 56.8676C173.547 56.7045 173.234 56.4559 172.998 56.122C172.765 55.788 172.64 55.3709 172.624 54.8707C172.61 54.4401 172.678 54.0814 172.828 53.7946C172.978 53.5079 173.187 53.2756 173.457 53.0978C173.726 52.9199 174.032 52.7824 174.374 52.6851C174.719 52.5844 175.076 52.5081 175.446 52.4564C175.891 52.3955 176.253 52.3423 176.53 52.2969C176.807 52.2481 177.007 52.182 177.13 52.0984C177.257 52.0114 177.317 51.8818 177.312 51.7095L177.311 51.6797C177.299 51.3053 177.178 51.0191 176.95 50.8209C176.721 50.6227 176.398 50.5304 175.981 50.5439C175.54 50.5581 175.194 50.6655 174.942 50.866C174.693 51.0664 174.528 51.2989 174.447 51.5635L172.76 51.3794C172.877 50.9113 173.083 50.5167 173.378 50.1954C173.672 49.8708 174.037 49.6236 174.473 49.4536C174.908 49.2803 175.393 49.1851 175.926 49.1678C176.294 49.1559 176.661 49.1871 177.029 49.2614C177.396 49.3357 177.733 49.4674 178.041 49.6564C178.349 49.8421 178.599 50.1009 178.793 50.4329C178.989 50.7648 179.095 51.1842 179.112 51.691L179.277 56.7991L177.548 56.8551L177.514 55.8067L177.454 55.8086C177.352 56.0241 177.204 56.2279 177.012 56.4198C176.822 56.6084 176.58 56.7638 176.286 56.886C175.994 57.0049 175.65 57.0708 175.252 57.0837ZM175.677 55.7468C176.038 55.7351 176.348 55.6537 176.609 55.5027C176.869 55.3484 177.067 55.1496 177.201 54.9065C177.339 54.6633 177.404 54.4009 177.395 54.1193L177.366 53.2199C177.311 53.2681 177.216 53.3143 177.082 53.3584C176.95 53.4025 176.802 53.4421 176.638 53.4773C176.473 53.5124 176.31 53.5443 176.148 53.5727C175.987 53.6011 175.847 53.6256 175.728 53.646C175.461 53.6911 175.223 53.7585 175.013 53.8482C174.804 53.9379 174.64 54.0593 174.523 54.2123C174.405 54.362 174.35 54.5528 174.357 54.7847C174.368 55.116 174.497 55.3622 174.744 55.5233C174.992 55.6844 175.302 55.7589 175.677 55.7468ZM184.65 48.9847L184.695 50.3761L180.307 50.5182L180.262 49.1268L184.65 48.9847ZM181.286 47.2632L183.085 47.2049L183.317 54.3702C183.325 54.612 183.367 54.7963 183.445 54.9232C183.525 55.0466 183.627 55.1295 183.751 55.1719C183.875 55.2143 184.012 55.2331 184.161 55.2283C184.273 55.2246 184.376 55.213 184.468 55.1935C184.564 55.1738 184.636 55.1565 184.685 55.1417L185.034 56.5381C184.939 56.5743 184.803 56.6152 184.625 56.6607C184.451 56.7062 184.236 56.7363 183.981 56.7512C183.531 56.7791 183.123 56.7243 182.757 56.5869C182.391 56.4462 182.097 56.2203 181.875 55.9092C181.656 55.5979 181.54 55.2037 181.528 54.7266L181.286 47.2632ZM188.603 56.6513C188.119 56.667 187.681 56.5949 187.288 56.4352C186.898 56.2721 186.585 56.0236 186.348 55.6897C186.115 55.3557 185.991 54.9385 185.974 54.4383C185.96 54.0077 186.028 53.649 186.178 53.3623C186.328 53.0756 186.538 52.8433 186.807 52.6654C187.077 52.4876 187.382 52.35 187.724 52.2527C188.069 52.152 188.426 52.0758 188.796 52.024C189.242 51.9631 189.603 51.91 189.88 51.8645C190.157 51.8158 190.357 51.7496 190.481 51.666C190.607 51.579 190.668 51.4494 190.662 51.2771L190.661 51.2473C190.649 50.873 190.529 50.5867 190.3 50.3885C190.072 50.1903 189.749 50.098 189.331 50.1115C188.891 50.1258 188.544 50.2332 188.292 50.4337C188.043 50.6341 187.878 50.8666 187.797 51.1312L186.11 50.947C186.228 50.479 186.434 50.0843 186.728 49.763C187.023 49.4385 187.388 49.1912 187.823 49.0212C188.259 48.848 188.743 48.7527 189.277 48.7354C189.644 48.7235 190.012 48.7547 190.379 48.829C190.746 48.9034 191.084 49.035 191.392 49.224C191.699 49.4097 191.95 49.6686 192.143 50.0005C192.339 50.3324 192.446 50.7518 192.462 51.2586L192.628 56.3667L190.898 56.4227L190.864 55.3743L190.805 55.3762C190.702 55.5918 190.555 55.7955 190.362 55.9875C190.173 56.176 189.931 56.3314 189.636 56.4537C189.345 56.5726 189 56.6384 188.603 56.6513ZM189.027 55.3144C189.388 55.3027 189.699 55.2214 189.959 55.0703C190.22 54.916 190.417 54.7173 190.552 54.4741C190.69 54.2309 190.754 53.9685 190.745 53.6869L190.716 52.7875C190.661 52.8357 190.567 52.8819 190.432 52.9261C190.301 52.9701 190.153 53.0097 189.988 53.0449C189.824 53.0801 189.66 53.1119 189.499 53.1403C189.337 53.1688 189.197 53.1932 189.078 53.2136C188.811 53.2588 188.573 53.3262 188.364 53.4159C188.154 53.5055 187.991 53.6269 187.873 53.7799C187.755 53.9297 187.7 54.1205 187.708 54.3524C187.718 54.6836 187.847 54.9298 188.095 55.0909C188.342 55.252 188.653 55.3265 189.027 55.3144ZM144.124 74.9465L143.795 64.77L147.611 64.6464C148.392 64.6211 149.053 64.7456 149.593 65.02C150.135 65.2942 150.551 65.682 150.839 66.1833C151.13 66.6813 151.287 67.2532 151.307 67.8992C151.329 68.5518 151.21 69.136 150.951 69.6517C150.693 70.1674 150.3 70.5798 149.773 70.8886C149.245 71.1942 148.589 71.3597 147.804 71.3852L145.275 71.4671L145.226 69.9515L147.507 69.8777C147.964 69.8629 148.335 69.7712 148.622 69.6028C148.908 69.4343 149.116 69.2087 149.247 68.926C149.38 68.6431 149.441 68.3211 149.429 67.96C149.417 67.5989 149.336 67.2832 149.185 67.0129C149.037 66.7425 148.813 66.5358 148.513 66.393C148.216 66.2467 147.838 66.1811 147.377 66.196L145.688 66.2507L145.968 74.8868L144.124 74.9465ZM153.05 74.6574L152.802 67.0251L154.547 66.9686L154.588 68.2406L154.667 68.2381C154.792 67.793 155.02 67.4457 155.35 67.1962C155.683 66.9434 156.069 66.8099 156.506 66.7957C156.605 66.7925 156.716 66.7938 156.839 66.7998C156.965 66.8024 157.07 66.8106 157.153 66.8245L157.207 68.4791C157.13 68.4551 157.008 68.4358 156.842 68.4213C156.679 68.4034 156.521 68.3969 156.369 68.4018C156.041 68.4124 155.748 68.4932 155.491 68.6441C155.237 68.7916 155.04 68.992 154.899 69.2453C154.758 69.4986 154.693 69.7875 154.703 70.1122L154.848 74.5992L153.05 74.6574ZM161.617 74.5292C160.872 74.5533 160.221 74.4103 159.663 74.1C159.106 73.7898 158.667 73.3447 158.347 72.7648C158.03 72.1848 157.858 71.5006 157.833 70.7122C157.807 69.9238 157.934 69.2283 158.213 68.6256C158.495 68.0229 158.904 67.5487 159.44 67.2031C159.976 66.8574 160.617 66.6725 161.362 66.6484C162.107 66.6242 162.759 66.7673 163.316 67.0775C163.873 67.3878 164.31 67.8346 164.628 68.4179C164.948 69.0011 165.121 69.6869 165.147 70.4753C165.173 71.2637 165.044 71.9576 164.762 72.557C164.483 73.1564 164.075 73.6288 163.539 73.9745C163.003 74.3201 162.363 74.505 161.617 74.5292ZM161.581 73.0878C161.985 73.0748 162.319 72.9528 162.583 72.7221C162.848 72.488 163.04 72.18 163.16 71.7981C163.284 71.4161 163.338 70.9932 163.323 70.5294C163.308 70.0623 163.227 69.6421 163.078 69.2689C162.934 68.8922 162.722 68.5957 162.443 68.3792C162.164 68.1627 161.822 68.0611 161.418 68.0741C161.004 68.0876 160.663 68.2113 160.396 68.4455C160.131 68.6796 159.937 68.9893 159.814 69.3746C159.694 69.7566 159.641 70.1811 159.656 70.6482C159.671 71.1119 159.751 71.5305 159.896 71.9038C160.044 72.2771 160.257 72.5719 160.536 72.7884C160.818 73.0014 161.166 73.1013 161.581 73.0878ZM170.36 66.4564L170.405 67.8477L166.018 67.9898L165.973 66.5985L170.36 66.4564ZM166.997 64.7349L168.796 64.6766L169.028 71.8419C169.035 72.0837 169.078 72.268 169.155 72.3949C169.235 72.5183 169.337 72.6012 169.461 72.6436C169.586 72.686 169.722 72.7048 169.871 72.7C169.984 72.6963 170.086 72.6847 170.178 72.6651C170.274 72.6455 170.346 72.6282 170.396 72.6133L170.744 74.0098C170.649 74.046 170.513 74.0869 170.335 74.1324C170.161 74.1779 169.947 74.208 169.692 74.2229C169.242 74.2508 168.834 74.196 168.468 74.0586C168.102 73.9179 167.807 73.692 167.585 73.3809C167.366 73.0696 167.251 72.6754 167.238 72.1983L166.997 64.7349ZM175.414 74.0824C174.648 74.1072 173.982 73.9695 173.416 73.6696C172.852 73.3661 172.412 72.9261 172.094 72.3494C171.777 71.7694 171.606 71.0802 171.58 70.2819C171.554 69.4968 171.681 68.8029 171.96 68.2003C172.242 67.5943 172.648 67.1169 173.177 66.7681C173.706 66.4161 174.335 66.2282 175.064 66.2046C175.534 66.1894 175.981 66.2512 176.403 66.3901C176.829 66.5255 177.207 66.7454 177.539 67.0497C177.874 67.3539 178.142 67.7464 178.343 68.2274C178.544 68.705 178.655 69.2784 178.677 69.9476L178.695 70.4991L172.439 70.7017L172.4 69.4893L176.931 69.3425C176.917 68.9981 176.833 68.6941 176.678 68.4305C176.524 68.1636 176.313 67.9565 176.046 67.8093C175.783 67.662 175.479 67.5939 175.134 67.6051C174.767 67.617 174.446 67.7169 174.174 67.9048C173.901 68.0894 173.692 68.3283 173.546 68.6215C173.402 68.9113 173.335 69.2269 173.342 69.5682L173.377 70.6266C173.391 71.0705 173.485 71.4488 173.657 71.7616C173.83 72.071 174.064 72.3055 174.361 72.465C174.658 72.6212 175.002 72.693 175.393 72.6803C175.655 72.6718 175.891 72.6277 176.1 72.548C176.31 72.4649 176.49 72.348 176.641 72.1972C176.792 72.0464 176.904 71.8621 176.976 71.6442L178.662 71.7786C178.57 72.2259 178.381 72.62 178.093 72.961C177.809 73.2985 177.44 73.5658 176.985 73.7629C176.53 73.9567 176.007 74.0632 175.414 74.0824ZM183.658 73.8154C182.897 73.84 182.237 73.6939 181.679 73.3771C181.125 73.0601 180.691 72.6115 180.377 72.0314C180.067 71.4479 179.899 70.7702 179.874 69.9984C179.849 69.2232 179.976 68.5343 180.255 67.9317C180.533 67.3258 180.939 66.8484 181.472 66.4995C182.007 66.1472 182.648 65.959 183.393 65.9349C184.013 65.9148 184.565 66.0113 185.049 66.2245C185.537 66.4342 185.93 66.7414 186.228 67.1463C186.526 67.5478 186.704 68.0229 186.762 68.5715L185.042 68.6272C184.961 68.2618 184.785 67.9607 184.516 67.724C184.249 67.484 183.899 67.371 183.465 67.385C183.097 67.3969 182.778 67.5068 182.506 67.7145C182.234 67.919 182.026 68.2076 181.882 68.5803C181.742 68.953 181.68 69.396 181.696 69.9095C181.713 70.4296 181.804 70.8743 181.969 71.2437C182.133 71.6098 182.356 71.8894 182.637 72.0826C182.922 72.2723 183.252 72.3611 183.626 72.349C183.891 72.3404 184.126 72.2831 184.332 72.1769C184.54 72.0674 184.713 71.9142 184.849 71.7175C184.985 71.5207 185.075 71.284 185.119 71.0074L186.839 70.9517C186.813 71.493 186.67 71.9769 186.408 72.4032C186.147 72.8262 185.783 73.1629 185.317 73.4135C184.851 73.6607 184.298 73.7947 183.658 73.8154ZM191.964 65.7568L192.009 67.1481L187.622 67.2902L187.577 65.8989L191.964 65.7568ZM188.601 64.0352L190.399 63.9769L190.632 71.1422C190.639 71.3841 190.682 71.5684 190.759 71.6952C190.839 71.8186 190.941 71.9015 191.065 71.9439C191.189 71.9864 191.326 72.0051 191.475 72.0003C191.588 71.9967 191.69 71.9851 191.782 71.9655C191.878 71.9458 191.95 71.9286 192 71.9137L192.348 73.3101C192.253 73.3463 192.117 73.3872 191.939 73.4328C191.765 73.4782 191.55 73.5084 191.296 73.5233C190.845 73.5511 190.437 73.4963 190.072 73.359C189.706 73.2183 189.411 72.9923 189.189 72.6812C188.97 72.3699 188.855 71.9758 188.842 71.4986L188.601 64.0352ZM193.716 73.3404L193.469 65.7081L195.267 65.6498L195.515 73.2822L193.716 73.3404ZM194.338 64.5955C194.053 64.6048 193.805 64.5183 193.593 64.3361C193.382 64.1506 193.272 63.9237 193.263 63.6554C193.254 63.3838 193.349 63.1502 193.549 62.9547C193.748 62.7559 193.99 62.6519 194.275 62.6427C194.563 62.6334 194.811 62.7215 195.019 62.9071C195.231 63.0893 195.341 63.3162 195.35 63.5878C195.359 63.8561 195.263 64.0897 195.064 64.2885C194.868 64.4838 194.626 64.5862 194.338 64.5955ZM200.698 73.2635C199.953 73.2876 199.302 73.1446 198.745 72.8343C198.187 72.5241 197.748 72.079 197.428 71.4991C197.111 70.9191 196.939 70.2349 196.914 69.4465C196.888 68.6581 197.015 67.9626 197.294 67.36C197.576 66.7572 197.985 66.283 198.521 65.9374C199.057 65.5917 199.698 65.4068 200.443 65.3827C201.188 65.3586 201.84 65.5016 202.397 65.8119C202.954 66.1221 203.391 66.5689 203.709 67.1522C204.029 67.7354 204.203 68.4212 204.228 69.2096C204.254 69.998 204.125 70.692 203.843 71.2914C203.564 71.8907 203.156 72.3632 202.62 72.7088C202.084 73.0545 201.444 73.2394 200.698 73.2635ZM200.662 71.8222C201.066 71.8091 201.4 71.6872 201.665 71.4564C201.929 71.2224 202.121 70.9144 202.241 70.5324C202.365 70.1504 202.419 69.7275 202.404 69.2637C202.389 68.7966 202.308 68.3765 202.16 68.0032C202.015 67.6266 201.803 67.33 201.524 67.1135C201.245 66.8971 200.903 66.7954 200.499 66.8085C200.085 66.8219 199.744 66.9457 199.477 67.1798C199.212 67.4139 199.018 67.7236 198.895 68.109C198.775 68.4909 198.722 68.9154 198.737 69.3825C198.752 69.8463 198.832 70.2648 198.977 70.6382C199.125 71.0114 199.338 71.3063 199.617 71.5227C199.899 71.7358 200.248 71.8356 200.662 71.8222ZM207.531 68.4162L207.676 72.8883L205.877 72.9466L205.63 65.3142L207.35 65.2585L207.392 66.5554L207.481 66.5525C207.643 66.1195 207.912 65.7709 208.288 65.5067C208.667 65.2424 209.142 65.101 209.712 65.0825C210.238 65.0655 210.701 65.1632 211.099 65.3759C211.5 65.5883 211.816 65.9048 212.045 66.3251C212.277 66.7454 212.402 67.2603 212.418 67.87L212.576 72.7296L210.777 72.7879L210.628 68.2065C210.612 67.6963 210.467 67.3014 210.192 67.0218C209.921 66.7421 209.554 66.6098 209.09 66.6248C208.775 66.635 208.498 66.7136 208.257 66.8607C208.02 67.0043 207.835 67.2076 207.705 67.4705C207.577 67.7333 207.519 68.0485 207.531 68.4162Z" fill="#1E1E1E"/>
<path d="M149.975 115.779C149.854 115.241 149.318 114.903 148.779 115.025L140.001 117.01C139.462 117.132 139.125 117.667 139.246 118.206C139.368 118.745 139.904 119.083 140.442 118.961L148.245 117.196L150.01 124.999C150.132 125.538 150.667 125.875 151.206 125.754C151.745 125.632 152.083 125.096 151.961 124.558L149.975 115.779ZM84.8457 219.534L149.846 116.534L148.154 115.466L83.1543 218.466L84.8457 219.534Z" fill="url(#paint2_linear_128_323)"/>
<circle cx="341.5" cy="293.5" r="52.5" fill="url(#paint3_linear_128_323)"/>
<path d="M303.508 274.818L306.158 282.832H306.262L308.907 274.818H310.936L307.346 285H305.069L301.485 274.818H303.508ZM314.758 285.149C313.992 285.149 313.331 284.99 312.774 284.672C312.22 284.35 311.794 283.896 311.496 283.31C311.198 282.72 311.049 282.025 311.049 281.227C311.049 280.441 311.198 279.752 311.496 279.158C311.798 278.562 312.219 278.098 312.759 277.766C313.299 277.432 313.934 277.264 314.663 277.264C315.134 277.264 315.578 277.34 315.995 277.493C316.416 277.642 316.788 277.874 317.109 278.189C317.434 278.504 317.689 278.905 317.875 279.392C318.06 279.876 318.153 280.453 318.153 281.122V281.674H311.894V280.461H316.428C316.425 280.116 316.35 279.81 316.204 279.541C316.058 279.269 315.855 279.056 315.593 278.9C315.334 278.744 315.033 278.666 314.688 278.666C314.32 278.666 313.997 278.756 313.718 278.935C313.44 279.11 313.223 279.342 313.067 279.631C312.915 279.916 312.837 280.229 312.834 280.57V281.629C312.834 282.073 312.915 282.455 313.077 282.773C313.24 283.088 313.467 283.33 313.758 283.499C314.05 283.664 314.391 283.747 314.782 283.747C315.044 283.747 315.281 283.711 315.493 283.638C315.705 283.562 315.889 283.451 316.045 283.305C316.201 283.159 316.319 282.978 316.398 282.763L318.079 282.952C317.973 283.396 317.77 283.784 317.472 284.115C317.177 284.443 316.799 284.698 316.339 284.881C315.878 285.06 315.351 285.149 314.758 285.149ZM319.676 285V277.364H321.421V278.636H321.5C321.639 278.196 321.878 277.856 322.216 277.617C322.558 277.375 322.947 277.254 323.384 277.254C323.484 277.254 323.595 277.259 323.718 277.269C323.844 277.276 323.948 277.287 324.031 277.304V278.96C323.955 278.933 323.834 278.91 323.668 278.89C323.505 278.867 323.348 278.855 323.196 278.855C322.867 278.855 322.572 278.926 322.311 279.069C322.052 279.208 321.848 279.402 321.699 279.651C321.55 279.899 321.475 280.186 321.475 280.511V285H319.676ZM325.226 285V277.364H327.026V285H325.226ZM326.131 276.28C325.846 276.28 325.601 276.185 325.396 275.996C325.19 275.804 325.087 275.574 325.087 275.305C325.087 275.034 325.19 274.803 325.396 274.614C325.601 274.422 325.846 274.326 326.131 274.326C326.42 274.326 326.665 274.422 326.867 274.614C327.073 274.803 327.175 275.034 327.175 275.305C327.175 275.574 327.073 275.804 326.867 275.996C326.665 276.185 326.42 276.28 326.131 276.28ZM332.745 277.364V278.756H328.231V277.364H332.745ZM329.359 285V276.643C329.359 276.129 329.465 275.701 329.677 275.36C329.893 275.019 330.181 274.763 330.542 274.594C330.904 274.425 331.305 274.341 331.745 274.341C332.057 274.341 332.334 274.366 332.576 274.415C332.818 274.465 332.997 274.51 333.113 274.55L332.755 275.942C332.678 275.919 332.582 275.895 332.466 275.872C332.35 275.846 332.221 275.832 332.079 275.832C331.744 275.832 331.507 275.914 331.368 276.076C331.232 276.235 331.164 276.464 331.164 276.762V285H329.359ZM334.154 285V277.364H335.954V285H334.154ZM335.059 276.28C334.774 276.28 334.529 276.185 334.323 275.996C334.118 275.804 334.015 275.574 334.015 275.305C334.015 275.034 334.118 274.803 334.323 274.614C334.529 274.422 334.774 274.326 335.059 274.326C335.347 274.326 335.593 274.422 335.795 274.614C336 274.803 336.103 275.034 336.103 275.305C336.103 275.574 336 275.804 335.795 275.996C335.593 276.185 335.347 276.28 335.059 276.28ZM341.185 285.149C340.42 285.149 339.758 284.99 339.202 284.672C338.648 284.35 338.222 283.896 337.924 283.31C337.626 282.72 337.476 282.025 337.476 281.227C337.476 280.441 337.626 279.752 337.924 279.158C338.226 278.562 338.646 278.098 339.187 277.766C339.727 277.432 340.362 277.264 341.091 277.264C341.561 277.264 342.006 277.34 342.423 277.493C342.844 277.642 343.215 277.874 343.537 278.189C343.862 278.504 344.117 278.905 344.302 279.392C344.488 279.876 344.581 280.453 344.581 281.122V281.674H338.322V280.461H342.856C342.852 280.116 342.778 279.81 342.632 279.541C342.486 279.269 342.282 279.056 342.021 278.9C341.762 278.744 341.46 278.666 341.116 278.666C340.748 278.666 340.425 278.756 340.146 278.935C339.868 279.11 339.651 279.342 339.495 279.631C339.342 279.916 339.265 280.229 339.261 280.57V281.629C339.261 282.073 339.342 282.455 339.505 282.773C339.667 283.088 339.894 283.33 340.186 283.499C340.478 283.664 340.819 283.747 341.21 283.747C341.472 283.747 341.709 283.711 341.921 283.638C342.133 283.562 342.317 283.451 342.473 283.305C342.629 283.159 342.746 282.978 342.826 282.763L344.506 282.952C344.4 283.396 344.198 283.784 343.9 284.115C343.605 284.443 343.227 284.698 342.766 284.881C342.306 285.06 341.779 285.149 341.185 285.149ZM348.937 285.134C348.337 285.134 347.8 284.98 347.326 284.672C346.852 284.364 346.478 283.916 346.203 283.33C345.928 282.743 345.79 282.03 345.79 281.192C345.79 280.343 345.929 279.627 346.208 279.044C346.49 278.457 346.869 278.015 347.346 277.717C347.824 277.415 348.356 277.264 348.942 277.264C349.39 277.264 349.758 277.34 350.046 277.493C350.334 277.642 350.563 277.823 350.732 278.035C350.901 278.244 351.032 278.441 351.125 278.626H351.199V274.818H353.004V285H351.234V283.797H351.125C351.032 283.982 350.898 284.18 350.722 284.388C350.546 284.594 350.314 284.77 350.026 284.915C349.738 285.061 349.375 285.134 348.937 285.134ZM349.439 283.658C349.821 283.658 350.145 283.555 350.414 283.349C350.682 283.141 350.886 282.851 351.025 282.479C351.165 282.108 351.234 281.676 351.234 281.182C351.234 280.688 351.165 280.259 351.025 279.894C350.889 279.53 350.687 279.246 350.419 279.044C350.154 278.842 349.827 278.741 349.439 278.741C349.038 278.741 348.704 278.845 348.435 279.054C348.167 279.263 347.964 279.551 347.829 279.919C347.693 280.287 347.625 280.708 347.625 281.182C347.625 281.659 347.693 282.085 347.829 282.46C347.968 282.831 348.172 283.124 348.44 283.339C348.712 283.552 349.045 283.658 349.439 283.658ZM360.592 285.154C360.108 285.154 359.672 285.068 359.284 284.896C358.9 284.72 358.595 284.461 358.37 284.12C358.148 283.779 358.036 283.358 358.036 282.857C358.036 282.426 358.116 282.07 358.275 281.788C358.434 281.507 358.651 281.281 358.926 281.112C359.201 280.943 359.511 280.816 359.856 280.729C360.204 280.64 360.564 280.575 360.935 280.536C361.382 280.489 361.745 280.448 362.024 280.411C362.302 280.371 362.504 280.312 362.63 280.232C362.759 280.149 362.824 280.022 362.824 279.849V279.82C362.824 279.445 362.713 279.155 362.491 278.95C362.269 278.744 361.949 278.641 361.532 278.641C361.091 278.641 360.741 278.737 360.483 278.93C360.227 279.122 360.055 279.349 359.965 279.611L358.285 279.372C358.418 278.908 358.636 278.52 358.941 278.209C359.246 277.894 359.619 277.659 360.06 277.503C360.501 277.344 360.988 277.264 361.522 277.264C361.889 277.264 362.256 277.307 362.62 277.393C362.985 277.48 363.318 277.622 363.62 277.821C363.921 278.017 364.163 278.283 364.345 278.621C364.531 278.96 364.624 279.382 364.624 279.889V285H362.894V283.951H362.834C362.725 284.163 362.571 284.362 362.372 284.548C362.176 284.73 361.929 284.877 361.631 284.99C361.336 285.099 360.99 285.154 360.592 285.154ZM361.059 283.832C361.42 283.832 361.734 283.76 361.999 283.618C362.264 283.472 362.468 283.28 362.61 283.041C362.756 282.803 362.829 282.542 362.829 282.261V281.361C362.773 281.407 362.677 281.45 362.541 281.49C362.408 281.53 362.259 281.565 362.093 281.594C361.928 281.624 361.764 281.651 361.601 281.674C361.439 281.697 361.298 281.717 361.179 281.734C360.91 281.77 360.67 281.83 360.458 281.913C360.246 281.996 360.078 282.112 359.956 282.261C359.833 282.406 359.772 282.595 359.772 282.827C359.772 283.159 359.893 283.409 360.134 283.578C360.376 283.747 360.685 283.832 361.059 283.832ZM368.233 280.526V285H366.434V277.364H368.154V278.661H368.243C368.419 278.234 368.699 277.894 369.083 277.642C369.471 277.39 369.95 277.264 370.52 277.264C371.047 277.264 371.506 277.377 371.897 277.602C372.292 277.828 372.597 278.154 372.812 278.582C373.031 279.009 373.139 279.528 373.135 280.138V285H371.335V280.416C371.335 279.906 371.203 279.506 370.938 279.218C370.676 278.93 370.313 278.786 369.849 278.786C369.534 278.786 369.254 278.855 369.009 278.994C368.767 279.13 368.576 279.327 368.437 279.586C368.301 279.844 368.233 280.158 368.233 280.526ZM377.799 285.134C377.199 285.134 376.662 284.98 376.188 284.672C375.714 284.364 375.339 283.916 375.064 283.33C374.789 282.743 374.652 282.03 374.652 281.192C374.652 280.343 374.791 279.627 375.069 279.044C375.351 278.457 375.73 278.015 376.208 277.717C376.685 277.415 377.217 277.264 377.804 277.264C378.251 277.264 378.619 277.34 378.907 277.493C379.196 277.642 379.424 277.823 379.593 278.035C379.762 278.244 379.893 278.441 379.986 278.626H380.061V274.818H381.865V285H380.095V283.797H379.986C379.893 283.982 379.759 284.18 379.583 284.388C379.408 284.594 379.176 284.77 378.887 284.915C378.599 285.061 378.236 285.134 377.799 285.134ZM378.301 283.658C378.682 283.658 379.007 283.555 379.275 283.349C379.544 283.141 379.747 282.851 379.887 282.479C380.026 282.108 380.095 281.676 380.095 281.182C380.095 280.688 380.026 280.259 379.887 279.894C379.751 279.53 379.549 279.246 379.28 279.044C379.015 278.842 378.688 278.741 378.301 278.741C377.9 278.741 377.565 278.845 377.296 279.054C377.028 279.263 376.826 279.551 376.69 279.919C376.554 280.287 376.486 280.708 376.486 281.182C376.486 281.659 376.554 282.085 376.69 282.46C376.829 282.831 377.033 283.124 377.301 283.339C377.573 283.552 377.906 283.658 378.301 283.658ZM317.289 293.382L315.649 293.561C315.602 293.395 315.521 293.24 315.405 293.094C315.292 292.948 315.14 292.83 314.948 292.741C314.755 292.651 314.52 292.607 314.242 292.607C313.867 292.607 313.552 292.688 313.297 292.85C313.045 293.013 312.921 293.223 312.924 293.482C312.921 293.704 313.002 293.884 313.168 294.023C313.337 294.163 313.615 294.277 314.003 294.366L315.306 294.645C316.028 294.801 316.565 295.048 316.916 295.386C317.271 295.724 317.45 296.166 317.453 296.713C317.45 297.194 317.309 297.618 317.031 297.986C316.756 298.35 316.373 298.635 315.882 298.841C315.392 299.046 314.828 299.149 314.192 299.149C313.257 299.149 312.505 298.954 311.935 298.562C311.365 298.168 311.025 297.62 310.916 296.917L312.671 296.748C312.75 297.093 312.919 297.353 313.178 297.528C313.436 297.704 313.773 297.792 314.187 297.792C314.615 297.792 314.958 297.704 315.216 297.528C315.478 297.353 315.609 297.136 315.609 296.877C315.609 296.658 315.524 296.478 315.355 296.335C315.19 296.193 314.931 296.083 314.58 296.007L313.277 295.734C312.545 295.581 312.003 295.324 311.652 294.963C311.3 294.598 311.126 294.138 311.13 293.581C311.126 293.11 311.254 292.703 311.512 292.358C311.774 292.01 312.137 291.741 312.601 291.553C313.068 291.36 313.607 291.264 314.217 291.264C315.112 291.264 315.816 291.455 316.33 291.836C316.847 292.217 317.167 292.732 317.289 293.382ZM322.318 299.149C321.552 299.149 320.891 298.99 320.334 298.672C319.781 298.35 319.355 297.896 319.057 297.31C318.758 296.72 318.609 296.025 318.609 295.227C318.609 294.441 318.758 293.752 319.057 293.158C319.358 292.562 319.779 292.098 320.32 291.766C320.86 291.432 321.494 291.264 322.224 291.264C322.694 291.264 323.138 291.34 323.556 291.493C323.977 291.642 324.348 291.874 324.67 292.189C324.994 292.504 325.25 292.905 325.435 293.392C325.621 293.876 325.714 294.453 325.714 295.122V295.674H319.454V294.461H323.989C323.985 294.116 323.911 293.81 323.765 293.541C323.619 293.269 323.415 293.056 323.153 292.9C322.895 292.744 322.593 292.666 322.248 292.666C321.881 292.666 321.557 292.756 321.279 292.935C321.001 293.11 320.784 293.342 320.628 293.631C320.475 293.916 320.397 294.229 320.394 294.57V295.629C320.394 296.073 320.475 296.455 320.638 296.773C320.8 297.088 321.027 297.33 321.319 297.499C321.61 297.664 321.952 297.747 322.343 297.747C322.605 297.747 322.842 297.711 323.054 297.638C323.266 297.562 323.45 297.451 323.606 297.305C323.762 297.159 323.879 296.978 323.959 296.763L325.639 296.952C325.533 297.396 325.331 297.784 325.033 298.115C324.738 298.443 324.36 298.698 323.899 298.881C323.438 299.06 322.911 299.149 322.318 299.149ZM330.567 299.149C329.805 299.149 329.15 298.982 328.603 298.647C328.06 298.312 327.641 297.85 327.346 297.26C327.054 296.667 326.908 295.984 326.908 295.212C326.908 294.436 327.057 293.752 327.356 293.158C327.654 292.562 328.075 292.098 328.618 291.766C329.165 291.432 329.812 291.264 330.557 291.264C331.177 291.264 331.726 291.379 332.203 291.607C332.683 291.833 333.066 292.152 333.351 292.567C333.636 292.978 333.799 293.458 333.839 294.009H332.118C332.049 293.641 331.883 293.334 331.621 293.089C331.363 292.84 331.016 292.716 330.582 292.716C330.214 292.716 329.891 292.815 329.613 293.014C329.334 293.21 329.117 293.491 328.961 293.859C328.809 294.227 328.733 294.668 328.733 295.182C328.733 295.702 328.809 296.15 328.961 296.524C329.114 296.895 329.328 297.182 329.603 297.384C329.881 297.583 330.208 297.683 330.582 297.683C330.847 297.683 331.084 297.633 331.293 297.533C331.505 297.431 331.682 297.283 331.825 297.091C331.968 296.899 332.065 296.665 332.118 296.39H333.839C333.795 296.93 333.636 297.409 333.361 297.827C333.086 298.241 332.712 298.566 332.238 298.801C331.764 299.033 331.207 299.149 330.567 299.149ZM340.184 295.788V291.364H341.983V299H340.238V297.643H340.159C339.986 298.07 339.703 298.42 339.309 298.692C338.917 298.964 338.435 299.099 337.862 299.099C337.361 299.099 336.919 298.988 336.534 298.766C336.153 298.541 335.855 298.214 335.639 297.787C335.424 297.356 335.316 296.836 335.316 296.226V291.364H337.116V295.947C337.116 296.431 337.249 296.816 337.514 297.101C337.779 297.386 338.127 297.528 338.558 297.528C338.823 297.528 339.08 297.464 339.328 297.335C339.577 297.205 339.781 297.013 339.94 296.758C340.102 296.499 340.184 296.176 340.184 295.788ZM343.834 299V291.364H345.579V292.636H345.658C345.798 292.196 346.036 291.856 346.374 291.617C346.716 291.375 347.105 291.254 347.543 291.254C347.642 291.254 347.753 291.259 347.876 291.269C348.002 291.276 348.106 291.287 348.189 291.304V292.96C348.113 292.933 347.992 292.91 347.826 292.89C347.664 292.867 347.506 292.855 347.354 292.855C347.026 292.855 346.731 292.926 346.469 293.069C346.21 293.208 346.006 293.402 345.857 293.651C345.708 293.899 345.634 294.186 345.634 294.511V299H343.834ZM352.451 299.149C351.685 299.149 351.024 298.99 350.467 298.672C349.914 298.35 349.488 297.896 349.19 297.31C348.891 296.72 348.742 296.025 348.742 295.227C348.742 294.441 348.891 293.752 349.19 293.158C349.491 292.562 349.912 292.098 350.452 291.766C350.993 291.432 351.627 291.264 352.356 291.264C352.827 291.264 353.271 291.34 353.689 291.493C354.11 291.642 354.481 291.874 354.802 292.189C355.127 292.504 355.382 292.905 355.568 293.392C355.754 293.876 355.847 294.453 355.847 295.122V295.674H349.587V294.461H354.121C354.118 294.116 354.043 293.81 353.898 293.541C353.752 293.269 353.548 293.056 353.286 292.9C353.028 292.744 352.726 292.666 352.381 292.666C352.013 292.666 351.69 292.756 351.412 292.935C351.133 293.11 350.916 293.342 350.761 293.631C350.608 293.916 350.53 294.229 350.527 294.57V295.629C350.527 296.073 350.608 296.455 350.771 296.773C350.933 297.088 351.16 297.33 351.452 297.499C351.743 297.664 352.085 297.747 352.476 297.747C352.738 297.747 352.975 297.711 353.187 297.638C353.399 297.562 353.583 297.451 353.739 297.305C353.894 297.159 354.012 296.978 354.092 296.763L355.772 296.952C355.666 297.396 355.464 297.784 355.165 298.115C354.87 298.443 354.493 298.698 354.032 298.881C353.571 299.06 353.044 299.149 352.451 299.149ZM364.655 291.364V292.756H360.265V291.364H364.655ZM361.349 289.534H363.149V296.703C363.149 296.945 363.185 297.131 363.258 297.26C363.334 297.386 363.434 297.472 363.556 297.518C363.679 297.565 363.815 297.588 363.964 297.588C364.077 297.588 364.179 297.58 364.272 297.563C364.368 297.547 364.441 297.532 364.491 297.518L364.794 298.925C364.698 298.959 364.56 298.995 364.381 299.035C364.206 299.075 363.99 299.098 363.735 299.104C363.284 299.118 362.878 299.05 362.517 298.901C362.156 298.748 361.869 298.513 361.657 298.195C361.448 297.876 361.345 297.479 361.349 297.001V289.534ZM369.409 299.149C368.663 299.149 368.017 298.985 367.47 298.657C366.923 298.329 366.499 297.87 366.197 297.28C365.899 296.69 365.75 296 365.75 295.212C365.75 294.423 365.899 293.732 366.197 293.138C366.499 292.545 366.923 292.085 367.47 291.756C368.017 291.428 368.663 291.264 369.409 291.264C370.155 291.264 370.801 291.428 371.348 291.756C371.895 292.085 372.317 292.545 372.616 293.138C372.917 293.732 373.068 294.423 373.068 295.212C373.068 296 372.917 296.69 372.616 297.28C372.317 297.87 371.895 298.329 371.348 298.657C370.801 298.985 370.155 299.149 369.409 299.149ZM369.419 297.707C369.823 297.707 370.161 297.596 370.433 297.374C370.705 297.149 370.907 296.847 371.04 296.469C371.176 296.092 371.244 295.671 371.244 295.207C371.244 294.739 371.176 294.317 371.04 293.939C370.907 293.558 370.705 293.254 370.433 293.029C370.161 292.804 369.823 292.691 369.419 292.691C369.005 292.691 368.66 292.804 368.385 293.029C368.113 293.254 367.909 293.558 367.773 293.939C367.641 294.317 367.574 294.739 367.574 295.207C367.574 295.671 367.641 296.092 367.773 296.469C367.909 296.847 368.113 297.149 368.385 297.374C368.66 297.596 369.005 297.707 369.419 297.707ZM335.542 309.788V305.364H337.342V313H335.597V311.643H335.517C335.345 312.07 335.061 312.42 334.667 312.692C334.276 312.964 333.794 313.099 333.22 313.099C332.72 313.099 332.277 312.988 331.893 312.766C331.512 312.541 331.213 312.214 330.998 311.787C330.782 311.356 330.675 310.836 330.675 310.226V305.364H332.474V309.947C332.474 310.431 332.607 310.816 332.872 311.101C333.137 311.386 333.485 311.528 333.916 311.528C334.181 311.528 334.438 311.464 334.687 311.335C334.935 311.205 335.139 311.013 335.298 310.758C335.461 310.499 335.542 310.176 335.542 309.788ZM345.228 307.382L343.587 307.561C343.541 307.395 343.46 307.24 343.344 307.094C343.231 306.948 343.078 306.83 342.886 306.741C342.694 306.651 342.459 306.607 342.18 306.607C341.806 306.607 341.491 306.688 341.236 306.85C340.984 307.013 340.859 307.223 340.863 307.482C340.859 307.704 340.941 307.884 341.106 308.023C341.275 308.163 341.554 308.277 341.942 308.366L343.244 308.645C343.967 308.801 344.504 309.048 344.855 309.386C345.21 309.724 345.389 310.166 345.392 310.713C345.389 311.194 345.248 311.618 344.969 311.986C344.694 312.35 344.311 312.635 343.821 312.841C343.33 313.046 342.767 313.149 342.131 313.149C341.196 313.149 340.443 312.954 339.873 312.562C339.303 312.168 338.964 311.62 338.854 310.917L340.609 310.748C340.689 311.093 340.858 311.353 341.116 311.528C341.375 311.704 341.711 311.792 342.126 311.792C342.553 311.792 342.896 311.704 343.155 311.528C343.416 311.353 343.547 311.136 343.547 310.877C343.547 310.658 343.463 310.478 343.294 310.335C343.128 310.193 342.87 310.083 342.518 310.007L341.216 309.734C340.483 309.581 339.941 309.324 339.59 308.963C339.239 308.598 339.065 308.138 339.068 307.581C339.065 307.11 339.192 306.703 339.451 306.358C339.713 306.01 340.076 305.741 340.54 305.553C341.007 305.36 341.546 305.264 342.155 305.264C343.05 305.264 343.755 305.455 344.268 305.836C344.785 306.217 345.105 306.732 345.228 307.382ZM350.257 313.149C349.491 313.149 348.83 312.99 348.273 312.672C347.719 312.35 347.294 311.896 346.995 311.31C346.697 310.72 346.548 310.025 346.548 309.227C346.548 308.441 346.697 307.752 346.995 307.158C347.297 306.562 347.718 306.098 348.258 305.766C348.798 305.432 349.433 305.264 350.162 305.264C350.633 305.264 351.077 305.34 351.494 305.493C351.915 305.642 352.287 305.874 352.608 306.189C352.933 306.504 353.188 306.905 353.374 307.392C353.559 307.876 353.652 308.453 353.652 309.122V309.674H347.393V308.461H351.927C351.924 308.116 351.849 307.81 351.703 307.541C351.557 307.269 351.354 307.056 351.092 306.9C350.833 306.744 350.532 306.666 350.187 306.666C349.819 306.666 349.496 306.756 349.218 306.935C348.939 307.11 348.722 307.342 348.566 307.631C348.414 307.916 348.336 308.229 348.333 308.57V309.629C348.333 310.073 348.414 310.455 348.576 310.773C348.739 311.088 348.966 311.33 349.257 311.499C349.549 311.664 349.89 311.747 350.281 311.747C350.543 311.747 350.78 311.711 350.992 311.638C351.204 311.562 351.388 311.451 351.544 311.305C351.7 311.159 351.818 310.978 351.897 310.763L353.578 310.952C353.472 311.396 353.269 311.784 352.971 312.115C352.676 312.443 352.298 312.698 351.838 312.881C351.377 313.06 350.85 313.149 350.257 313.149Z" fill="#1E1E1E"/>
<path d="M289.707 294.707C290.098 294.317 290.098 293.683 289.707 293.293L283.343 286.929C282.953 286.538 282.319 286.538 281.929 286.929C281.538 287.319 281.538 287.953 281.929 288.343L287.586 294L281.929 299.657C281.538 300.047 281.538 300.681 281.929 301.071C282.319 301.462 282.953 301.462 283.343 301.071L289.707 294.707ZM150 295H289V293H150V295Z" fill="url(#paint4_linear_128_323)"/>
<circle cx="288.5" cy="439.5" r="52.5" fill="url(#paint5_linear_128_323)"/>
<path d="M250.383 445V434.818H257.005V436.364H252.228V439.129H256.662V440.675H252.228V443.454H257.045V445H250.383ZM261.005 445.154C260.521 445.154 260.085 445.068 259.697 444.896C259.313 444.72 259.008 444.461 258.783 444.12C258.561 443.779 258.45 443.358 258.45 442.857C258.45 442.426 258.529 442.07 258.688 441.788C258.847 441.507 259.064 441.281 259.339 441.112C259.615 440.943 259.924 440.816 260.269 440.729C260.617 440.64 260.977 440.575 261.348 440.536C261.795 440.489 262.158 440.448 262.437 440.411C262.715 440.371 262.917 440.312 263.043 440.232C263.173 440.149 263.237 440.022 263.237 439.849V439.82C263.237 439.445 263.126 439.155 262.904 438.95C262.682 438.744 262.362 438.641 261.945 438.641C261.504 438.641 261.154 438.737 260.896 438.93C260.64 439.122 260.468 439.349 260.379 439.611L258.698 439.372C258.831 438.908 259.049 438.52 259.354 438.209C259.659 437.894 260.032 437.659 260.473 437.503C260.914 437.344 261.401 437.264 261.935 437.264C262.303 437.264 262.669 437.307 263.033 437.393C263.398 437.48 263.731 437.622 264.033 437.821C264.334 438.017 264.576 438.283 264.759 438.621C264.944 438.96 265.037 439.382 265.037 439.889V445H263.307V443.951H263.247C263.138 444.163 262.984 444.362 262.785 444.548C262.589 444.73 262.342 444.877 262.044 444.99C261.749 445.099 261.403 445.154 261.005 445.154ZM261.472 443.832C261.834 443.832 262.147 443.76 262.412 443.618C262.677 443.472 262.881 443.28 263.023 443.041C263.169 442.803 263.242 442.542 263.242 442.261V441.361C263.186 441.407 263.09 441.45 262.954 441.49C262.821 441.53 262.672 441.565 262.506 441.594C262.341 441.624 262.177 441.651 262.014 441.674C261.852 441.697 261.711 441.717 261.592 441.734C261.323 441.77 261.083 441.83 260.871 441.913C260.659 441.996 260.491 442.112 260.369 442.261C260.246 442.406 260.185 442.595 260.185 442.827C260.185 443.159 260.306 443.409 260.548 443.578C260.79 443.747 261.098 443.832 261.472 443.832ZM272.882 439.382L271.241 439.561C271.195 439.395 271.114 439.24 270.998 439.094C270.885 438.948 270.733 438.83 270.54 438.741C270.348 438.651 270.113 438.607 269.835 438.607C269.46 438.607 269.145 438.688 268.89 438.85C268.638 439.013 268.514 439.223 268.517 439.482C268.514 439.704 268.595 439.884 268.761 440.023C268.93 440.163 269.208 440.277 269.596 440.366L270.898 440.645C271.621 440.801 272.158 441.048 272.509 441.386C272.864 441.724 273.043 442.166 273.046 442.713C273.043 443.194 272.902 443.618 272.624 443.986C272.348 444.35 271.966 444.635 271.475 444.841C270.985 445.046 270.421 445.149 269.785 445.149C268.85 445.149 268.098 444.954 267.528 444.562C266.958 444.168 266.618 443.62 266.509 442.917L268.263 442.748C268.343 443.093 268.512 443.353 268.771 443.528C269.029 443.704 269.366 443.792 269.78 443.792C270.207 443.792 270.55 443.704 270.809 443.528C271.071 443.353 271.202 443.136 271.202 442.877C271.202 442.658 271.117 442.478 270.948 442.335C270.782 442.193 270.524 442.083 270.173 442.007L268.87 441.734C268.138 441.581 267.596 441.324 267.244 440.963C266.893 440.598 266.719 440.138 266.722 439.581C266.719 439.11 266.847 438.703 267.105 438.358C267.367 438.01 267.73 437.741 268.194 437.553C268.661 437.36 269.2 437.264 269.81 437.264C270.705 437.264 271.409 437.455 271.923 437.836C272.44 438.217 272.759 438.732 272.882 439.382ZM275.649 447.864C275.404 447.864 275.176 447.844 274.968 447.804C274.762 447.768 274.598 447.724 274.475 447.675L274.893 446.273C275.155 446.349 275.389 446.385 275.594 446.382C275.8 446.379 275.98 446.314 276.136 446.188C276.295 446.066 276.429 445.86 276.539 445.572L276.693 445.159L273.924 437.364H275.833L277.593 443.131H277.672L279.437 437.364H281.351L278.294 445.925C278.151 446.329 277.962 446.675 277.727 446.964C277.492 447.255 277.203 447.478 276.862 447.63C276.524 447.786 276.119 447.864 275.649 447.864ZM289.882 437.364V438.756H285.493V437.364H289.882ZM286.576 435.534H288.376V442.703C288.376 442.945 288.413 443.131 288.485 443.26C288.562 443.386 288.661 443.472 288.784 443.518C288.906 443.565 289.042 443.588 289.191 443.588C289.304 443.588 289.407 443.58 289.5 443.563C289.596 443.547 289.669 443.532 289.718 443.518L290.022 444.925C289.926 444.959 289.788 444.995 289.609 445.035C289.433 445.075 289.218 445.098 288.963 445.104C288.512 445.118 288.106 445.05 287.745 444.901C287.383 444.748 287.097 444.513 286.885 444.195C286.676 443.876 286.573 443.479 286.576 443.001V435.534ZM294.637 445.149C293.891 445.149 293.244 444.985 292.698 444.657C292.151 444.329 291.727 443.87 291.425 443.28C291.127 442.69 290.977 442 290.977 441.212C290.977 440.423 291.127 439.732 291.425 439.138C291.727 438.545 292.151 438.085 292.698 437.756C293.244 437.428 293.891 437.264 294.637 437.264C295.382 437.264 296.029 437.428 296.575 437.756C297.122 438.085 297.545 438.545 297.843 439.138C298.145 439.732 298.296 440.423 298.296 441.212C298.296 442 298.145 442.69 297.843 443.28C297.545 443.87 297.122 444.329 296.575 444.657C296.029 444.985 295.382 445.149 294.637 445.149ZM294.646 443.707C295.051 443.707 295.389 443.596 295.661 443.374C295.932 443.149 296.135 442.847 296.267 442.469C296.403 442.092 296.471 441.671 296.471 441.207C296.471 440.739 296.403 440.317 296.267 439.939C296.135 439.558 295.932 439.254 295.661 439.029C295.389 438.804 295.051 438.691 294.646 438.691C294.232 438.691 293.887 438.804 293.612 439.029C293.341 439.254 293.137 439.558 293.001 439.939C292.868 440.317 292.802 440.739 292.802 441.207C292.802 441.671 292.868 442.092 293.001 442.469C293.137 442.847 293.341 443.149 293.612 443.374C293.887 443.596 294.232 443.707 294.646 443.707ZM309.794 434.818H311.638V441.47C311.638 442.199 311.466 442.841 311.121 443.394C310.78 443.948 310.299 444.38 309.679 444.692C309.06 445 308.335 445.154 307.507 445.154C306.675 445.154 305.949 445 305.329 444.692C304.709 444.38 304.229 443.948 303.887 443.394C303.546 442.841 303.375 442.199 303.375 441.47V434.818H305.22V441.316C305.22 441.74 305.313 442.118 305.498 442.45C305.687 442.781 305.952 443.041 306.294 443.23C306.635 443.416 307.039 443.509 307.507 443.509C307.974 443.509 308.378 443.416 308.72 443.23C309.065 443.041 309.33 442.781 309.515 442.45C309.701 442.118 309.794 441.74 309.794 441.316V434.818ZM319.599 439.382L317.958 439.561C317.912 439.395 317.831 439.24 317.715 439.094C317.602 438.948 317.45 438.83 317.257 438.741C317.065 438.651 316.83 438.607 316.551 438.607C316.177 438.607 315.862 438.688 315.607 438.85C315.355 439.013 315.231 439.223 315.234 439.482C315.231 439.704 315.312 439.884 315.477 440.023C315.646 440.163 315.925 440.277 316.313 440.366L317.615 440.645C318.338 440.801 318.875 441.048 319.226 441.386C319.581 441.724 319.76 442.166 319.763 442.713C319.76 443.194 319.619 443.618 319.34 443.986C319.065 444.35 318.682 444.635 318.192 444.841C317.701 445.046 317.138 445.149 316.502 445.149C315.567 445.149 314.815 444.954 314.244 444.562C313.674 444.168 313.335 443.62 313.225 442.917L314.98 442.748C315.06 443.093 315.229 443.353 315.487 443.528C315.746 443.704 316.082 443.792 316.497 443.792C316.924 443.792 317.267 443.704 317.526 443.528C317.788 443.353 317.919 443.136 317.919 442.877C317.919 442.658 317.834 442.478 317.665 442.335C317.499 442.193 317.241 442.083 316.889 442.007L315.587 441.734C314.854 441.581 314.312 441.324 313.961 440.963C313.61 440.598 313.436 440.138 313.439 439.581C313.436 439.11 313.563 438.703 313.822 438.358C314.084 438.01 314.447 437.741 314.911 437.553C315.378 437.36 315.917 437.264 316.526 437.264C317.421 437.264 318.126 437.455 318.639 437.836C319.156 438.217 319.476 438.732 319.599 439.382ZM324.628 445.149C323.862 445.149 323.201 444.99 322.644 444.672C322.09 444.35 321.665 443.896 321.366 443.31C321.068 442.72 320.919 442.025 320.919 441.227C320.919 440.441 321.068 439.752 321.366 439.158C321.668 438.562 322.089 438.098 322.629 437.766C323.169 437.432 323.804 437.264 324.533 437.264C325.004 437.264 325.448 437.34 325.866 437.493C326.287 437.642 326.658 437.874 326.979 438.189C327.304 438.504 327.559 438.905 327.745 439.392C327.93 439.876 328.023 440.453 328.023 441.122V441.674H321.764V440.461H326.298C326.295 440.116 326.22 439.81 326.074 439.541C325.929 439.269 325.725 439.056 325.463 438.9C325.204 438.744 324.903 438.666 324.558 438.666C324.19 438.666 323.867 438.756 323.589 438.935C323.31 439.11 323.093 439.342 322.937 439.631C322.785 439.916 322.707 440.229 322.704 440.57V441.629C322.704 442.073 322.785 442.455 322.947 442.773C323.11 443.088 323.337 443.33 323.628 443.499C323.92 443.664 324.261 443.747 324.653 443.747C324.914 443.747 325.151 443.711 325.363 443.638C325.576 443.562 325.76 443.451 325.915 443.305C326.071 443.159 326.189 442.978 326.268 442.763L327.949 442.952C327.843 443.396 327.64 443.784 327.342 444.115C327.047 444.443 326.669 444.698 326.209 444.881C325.748 445.06 325.221 445.149 324.628 445.149Z" fill="#1E1E1E"/>
<path d="M244.296 404.955C244.824 404.792 245.119 404.231 244.955 403.704L242.291 395.107C242.127 394.58 241.567 394.285 241.04 394.448C240.512 394.612 240.217 395.172 240.38 395.699L242.749 403.341L235.107 405.709C234.58 405.873 234.285 406.433 234.448 406.96C234.612 407.488 235.172 407.783 235.699 407.62L244.296 404.955ZM131.534 345.885L243.534 404.885L244.466 403.115L132.466 344.115L131.534 345.885Z" fill="url(#paint6_linear_128_323)"/>
<circle cx="167.5" cy="521.5" r="52.5" fill="url(#paint7_linear_128_323)"/>
<path d="M147.853 520V511.273H151.126C151.796 511.273 152.359 511.389 152.813 511.622C153.271 511.855 153.616 512.182 153.849 512.602C154.085 513.02 154.202 513.507 154.202 514.064C154.202 514.624 154.083 515.109 153.844 515.521C153.609 515.93 153.261 516.247 152.8 516.472C152.34 516.693 151.775 516.804 151.104 516.804H148.773V515.491H150.891C151.283 515.491 151.604 515.437 151.854 515.33C152.104 515.219 152.289 515.058 152.408 514.848C152.531 514.635 152.592 514.374 152.592 514.064C152.592 513.754 152.531 513.49 152.408 513.271C152.286 513.05 152.1 512.882 151.85 512.768C151.6 512.652 151.278 512.594 150.883 512.594H149.434V520H147.853ZM152.362 516.045L154.522 520H152.758L150.636 516.045H152.362ZM158.351 520.128C157.712 520.128 157.158 519.987 156.689 519.706C156.22 519.425 155.857 519.031 155.598 518.526C155.342 518.02 155.214 517.429 155.214 516.753C155.214 516.077 155.342 515.484 155.598 514.976C155.857 514.467 156.22 514.072 156.689 513.791C157.158 513.51 157.712 513.369 158.351 513.369C158.99 513.369 159.544 513.51 160.013 513.791C160.482 514.072 160.844 514.467 161.099 514.976C161.358 515.484 161.487 516.077 161.487 516.753C161.487 517.429 161.358 518.02 161.099 518.526C160.844 519.031 160.482 519.425 160.013 519.706C159.544 519.987 158.99 520.128 158.351 520.128ZM158.359 518.892C158.706 518.892 158.996 518.797 159.229 518.607C159.462 518.413 159.635 518.155 159.749 517.831C159.865 517.507 159.923 517.146 159.923 516.749C159.923 516.348 159.865 515.986 159.749 515.662C159.635 515.335 159.462 515.075 159.229 514.882C158.996 514.689 158.706 514.592 158.359 514.592C158.004 514.592 157.709 514.689 157.473 514.882C157.24 515.075 157.065 515.335 156.949 515.662C156.835 515.986 156.778 516.348 156.778 516.749C156.778 517.146 156.835 517.507 156.949 517.831C157.065 518.155 157.24 518.413 157.473 518.607C157.709 518.797 158.004 518.892 158.359 518.892ZM162.865 520V511.273H164.407V514.537H164.471C164.551 514.378 164.663 514.209 164.808 514.03C164.953 513.848 165.149 513.693 165.396 513.565C165.643 513.435 165.958 513.369 166.342 513.369C166.848 513.369 167.304 513.499 167.71 513.757C168.119 514.013 168.443 514.392 168.681 514.895C168.923 515.395 169.044 516.009 169.044 516.736C169.044 517.455 168.926 518.065 168.69 518.568C168.454 519.071 168.133 519.455 167.727 519.719C167.321 519.983 166.86 520.115 166.346 520.115C165.971 520.115 165.66 520.053 165.413 519.928C165.166 519.803 164.967 519.652 164.816 519.476C164.669 519.297 164.554 519.128 164.471 518.969H164.382V520H162.865ZM164.377 516.727C164.377 517.151 164.437 517.521 164.556 517.839C164.679 518.158 164.853 518.406 165.081 518.585C165.311 518.761 165.589 518.849 165.916 518.849C166.257 518.849 166.542 518.759 166.772 518.577C167.002 518.392 167.176 518.141 167.292 517.822C167.412 517.501 167.471 517.136 167.471 516.727C167.471 516.321 167.413 515.96 167.297 515.645C167.18 515.33 167.007 515.082 166.777 514.903C166.547 514.724 166.26 514.635 165.916 514.635C165.586 514.635 165.306 514.722 165.076 514.895C164.846 515.068 164.672 515.311 164.552 515.624C164.436 515.936 164.377 516.304 164.377 516.727ZM174.527 517.247V513.455H176.07V520H174.574V518.837H174.506C174.358 519.203 174.115 519.503 173.777 519.736C173.442 519.969 173.028 520.085 172.537 520.085C172.108 520.085 171.729 519.99 171.399 519.8C171.072 519.607 170.817 519.327 170.632 518.96C170.447 518.591 170.355 518.145 170.355 517.622V513.455H171.898V517.384C171.898 517.798 172.011 518.128 172.239 518.372C172.466 518.616 172.764 518.739 173.134 518.739C173.361 518.739 173.581 518.683 173.794 518.572C174.007 518.462 174.182 518.297 174.318 518.078C174.457 517.857 174.527 517.58 174.527 517.247ZM182.829 515.185L181.423 515.338C181.383 515.196 181.314 515.062 181.214 514.938C181.118 514.812 180.987 514.712 180.822 514.635C180.657 514.558 180.456 514.52 180.217 514.52C179.896 514.52 179.626 514.589 179.407 514.729C179.191 514.868 179.085 515.048 179.088 515.27C179.085 515.46 179.154 515.615 179.297 515.734C179.441 515.854 179.68 515.952 180.012 516.028L181.129 516.267C181.748 516.401 182.208 516.612 182.51 516.902C182.814 517.192 182.967 517.571 182.97 518.04C182.967 518.452 182.846 518.815 182.608 519.131C182.372 519.443 182.044 519.687 181.623 519.864C181.203 520.04 180.72 520.128 180.174 520.128C179.373 520.128 178.728 519.96 178.24 519.625C177.751 519.287 177.46 518.817 177.366 518.214L178.87 518.07C178.939 518.365 179.083 518.588 179.305 518.739C179.527 518.889 179.815 518.964 180.17 518.964C180.537 518.964 180.831 518.889 181.052 518.739C181.277 518.588 181.389 518.402 181.389 518.18C181.389 517.993 181.316 517.838 181.172 517.716C181.029 517.594 180.808 517.5 180.507 517.435L179.39 517.2C178.762 517.07 178.298 516.849 177.997 516.54C177.696 516.227 177.547 515.832 177.549 515.355C177.547 514.952 177.656 514.602 177.877 514.307C178.102 514.009 178.413 513.778 178.811 513.616C179.211 513.452 179.673 513.369 180.196 513.369C180.963 513.369 181.566 513.533 182.007 513.859C182.45 514.186 182.724 514.628 182.829 515.185ZM187.51 513.455V514.648H183.748V513.455H187.51ZM184.676 511.886H186.219V518.031C186.219 518.239 186.25 518.398 186.313 518.509C186.378 518.616 186.463 518.69 186.569 518.73C186.674 518.77 186.79 518.79 186.918 518.79C187.015 518.79 187.103 518.783 187.182 518.768C187.265 518.754 187.327 518.741 187.37 518.73L187.63 519.936C187.547 519.964 187.429 519.996 187.276 520.03C187.125 520.064 186.941 520.084 186.722 520.089C186.336 520.101 185.988 520.043 185.678 519.915C185.368 519.784 185.123 519.582 184.941 519.31C184.762 519.037 184.674 518.696 184.676 518.287V511.886ZM129.817 523.273V532H128.236V523.273H129.817ZM133.003 528.165V532H131.461V525.455H132.935V526.567H133.012C133.162 526.2 133.402 525.909 133.732 525.693C134.064 525.477 134.475 525.369 134.963 525.369C135.415 525.369 135.809 525.466 136.144 525.659C136.482 525.852 136.743 526.132 136.928 526.499C137.115 526.865 137.208 527.31 137.205 527.832V532H135.662V528.071C135.662 527.634 135.549 527.291 135.321 527.044C135.097 526.797 134.786 526.673 134.388 526.673C134.118 526.673 133.878 526.733 133.668 526.852C133.461 526.969 133.297 527.138 133.178 527.359C133.061 527.581 133.003 527.849 133.003 528.165ZM142.088 525.455V526.648H138.219V525.455H142.088ZM139.186 532V524.837C139.186 524.396 139.277 524.03 139.459 523.737C139.644 523.445 139.891 523.226 140.201 523.081C140.51 522.936 140.854 522.864 141.232 522.864C141.499 522.864 141.736 522.885 141.944 522.928C142.151 522.97 142.304 523.009 142.404 523.043L142.097 524.236C142.032 524.216 141.949 524.196 141.85 524.176C141.75 524.153 141.64 524.142 141.517 524.142C141.23 524.142 141.027 524.212 140.908 524.351C140.792 524.487 140.733 524.683 140.733 524.939V532H139.186ZM143.297 532V525.455H144.792V526.545H144.86C144.98 526.168 145.184 525.876 145.474 525.672C145.767 525.464 146.1 525.361 146.475 525.361C146.561 525.361 146.656 525.365 146.761 525.374C146.869 525.379 146.958 525.389 147.029 525.403V526.822C146.964 526.8 146.86 526.78 146.718 526.763C146.579 526.743 146.444 526.733 146.314 526.733C146.032 526.733 145.779 526.794 145.555 526.916C145.333 527.036 145.159 527.202 145.031 527.415C144.903 527.628 144.839 527.874 144.839 528.152V532H143.297ZM149.821 532.132C149.406 532.132 149.032 532.058 148.7 531.911C148.37 531.76 148.109 531.538 147.916 531.246C147.725 530.953 147.63 530.592 147.63 530.163C147.63 529.794 147.699 529.489 147.835 529.247C147.971 529.006 148.157 528.812 148.393 528.668C148.629 528.523 148.895 528.413 149.19 528.339C149.488 528.263 149.797 528.207 150.115 528.173C150.498 528.134 150.809 528.098 151.048 528.067C151.287 528.033 151.46 527.982 151.568 527.913C151.679 527.842 151.734 527.733 151.734 527.585V527.56C151.734 527.239 151.639 526.99 151.449 526.814C151.258 526.638 150.984 526.55 150.626 526.55C150.248 526.55 149.949 526.632 149.727 526.797C149.508 526.962 149.36 527.156 149.284 527.381L147.843 527.176C147.957 526.778 148.145 526.446 148.406 526.179C148.667 525.909 148.987 525.707 149.365 525.574C149.743 525.438 150.16 525.369 150.618 525.369C150.933 525.369 151.247 525.406 151.559 525.48C151.872 525.554 152.157 525.676 152.416 525.847C152.674 526.014 152.882 526.243 153.038 526.533C153.197 526.822 153.277 527.185 153.277 527.619V532H151.794V531.101H151.743C151.649 531.283 151.517 531.453 151.346 531.612C151.179 531.768 150.967 531.895 150.711 531.991C150.458 532.085 150.162 532.132 149.821 532.132ZM150.221 530.999C150.531 530.999 150.799 530.937 151.027 530.815C151.254 530.69 151.429 530.526 151.551 530.321C151.676 530.116 151.738 529.893 151.738 529.652V528.881C151.69 528.92 151.608 528.957 151.491 528.991C151.377 529.026 151.25 529.055 151.108 529.081C150.966 529.107 150.825 529.129 150.686 529.149C150.547 529.169 150.426 529.186 150.324 529.2C150.093 529.232 149.887 529.283 149.706 529.354C149.524 529.425 149.38 529.524 149.275 529.652C149.17 529.777 149.118 529.939 149.118 530.138C149.118 530.422 149.221 530.636 149.429 530.781C149.636 530.926 149.9 530.999 150.221 530.999ZM160.001 527.185L158.595 527.338C158.555 527.196 158.485 527.062 158.386 526.938C158.289 526.812 158.159 526.712 157.994 526.635C157.829 526.558 157.627 526.52 157.389 526.52C157.068 526.52 156.798 526.589 156.579 526.729C156.363 526.868 156.257 527.048 156.26 527.27C156.257 527.46 156.326 527.615 156.468 527.734C156.613 527.854 156.852 527.952 157.184 528.028L158.301 528.267C158.92 528.401 159.38 528.612 159.681 528.902C159.985 529.192 160.139 529.571 160.142 530.04C160.139 530.452 160.018 530.815 159.779 531.131C159.544 531.443 159.216 531.687 158.795 531.864C158.375 532.04 157.892 532.128 157.346 532.128C156.545 532.128 155.9 531.96 155.412 531.625C154.923 531.287 154.632 530.817 154.538 530.214L156.042 530.07C156.11 530.365 156.255 530.588 156.477 530.739C156.699 530.889 156.987 530.964 157.342 530.964C157.708 530.964 158.002 530.889 158.224 530.739C158.449 530.588 158.561 530.402 158.561 530.18C158.561 529.993 158.488 529.838 158.343 529.716C158.201 529.594 157.98 529.5 157.679 529.435L156.562 529.2C155.934 529.07 155.47 528.849 155.169 528.54C154.868 528.227 154.718 527.832 154.721 527.355C154.718 526.952 154.828 526.602 155.049 526.307C155.274 526.009 155.585 525.778 155.983 525.616C156.383 525.452 156.845 525.369 157.368 525.369C158.135 525.369 158.738 525.533 159.179 525.859C159.622 526.186 159.896 526.628 160.001 527.185ZM164.682 525.455V526.648H160.919V525.455H164.682ZM161.848 523.886H163.391V530.031C163.391 530.239 163.422 530.398 163.485 530.509C163.55 530.616 163.635 530.69 163.74 530.73C163.846 530.77 163.962 530.79 164.09 530.79C164.186 530.79 164.275 530.783 164.354 530.768C164.436 530.754 164.499 530.741 164.542 530.73L164.801 531.936C164.719 531.964 164.601 531.996 164.448 532.03C164.297 532.064 164.113 532.084 163.894 532.089C163.507 532.101 163.159 532.043 162.85 531.915C162.54 531.784 162.294 531.582 162.113 531.31C161.934 531.037 161.846 530.696 161.848 530.287V523.886ZM165.972 532V525.455H167.468V526.545H167.536C167.656 526.168 167.86 525.876 168.15 525.672C168.442 525.464 168.776 525.361 169.151 525.361C169.237 525.361 169.332 525.365 169.437 525.374C169.545 525.379 169.634 525.389 169.705 525.403V526.822C169.64 526.8 169.536 526.78 169.394 526.763C169.255 526.743 169.12 526.733 168.989 526.733C168.708 526.733 168.455 526.794 168.231 526.916C168.009 527.036 167.835 527.202 167.707 527.415C167.579 527.628 167.515 527.874 167.515 528.152V532H165.972ZM174.902 529.247V525.455H176.445V532H174.949V530.837H174.881C174.733 531.203 174.49 531.503 174.152 531.736C173.817 531.969 173.403 532.085 172.912 532.085C172.483 532.085 172.104 531.99 171.774 531.8C171.447 531.607 171.192 531.327 171.007 530.96C170.822 530.591 170.73 530.145 170.73 529.622V525.455H172.273V529.384C172.273 529.798 172.386 530.128 172.614 530.372C172.841 530.616 173.139 530.739 173.509 530.739C173.736 530.739 173.956 530.683 174.169 530.572C174.382 530.462 174.557 530.297 174.693 530.078C174.832 529.857 174.902 529.58 174.902 529.247ZM180.886 532.128C180.233 532.128 179.672 531.984 179.203 531.697C178.737 531.411 178.377 531.014 178.125 530.509C177.875 530 177.75 529.415 177.75 528.753C177.75 528.088 177.877 527.501 178.133 526.993C178.389 526.482 178.75 526.084 179.216 525.8C179.684 525.513 180.238 525.369 180.877 525.369C181.409 525.369 181.879 525.467 182.288 525.663C182.7 525.857 183.028 526.131 183.272 526.486C183.517 526.838 183.656 527.25 183.69 527.722H182.216C182.156 527.406 182.014 527.143 181.789 526.933C181.568 526.72 181.271 526.614 180.899 526.614C180.583 526.614 180.306 526.699 180.068 526.869C179.829 527.037 179.643 527.278 179.51 527.594C179.379 527.909 179.314 528.287 179.314 528.727C179.314 529.173 179.379 529.557 179.51 529.878C179.64 530.196 179.824 530.442 180.059 530.615C180.298 530.786 180.578 530.871 180.899 530.871C181.126 530.871 181.329 530.828 181.508 530.743C181.69 530.655 181.842 530.528 181.964 530.364C182.086 530.199 182.17 529.999 182.216 529.763H183.69C183.653 530.226 183.517 530.636 183.281 530.994C183.045 531.349 182.724 531.628 182.318 531.83C181.912 532.028 181.434 532.128 180.886 532.128ZM188.225 525.455V526.648H184.462V525.455H188.225ZM185.391 523.886H186.934V530.031C186.934 530.239 186.965 530.398 187.028 530.509C187.093 530.616 187.178 530.69 187.283 530.73C187.388 530.77 187.505 530.79 187.633 530.79C187.729 530.79 187.817 530.783 187.897 530.768C187.979 530.754 188.042 530.741 188.085 530.73L188.344 531.936C188.262 531.964 188.144 531.996 187.991 532.03C187.84 532.064 187.656 532.084 187.437 532.089C187.05 532.101 186.702 532.043 186.393 531.915C186.083 531.784 185.837 531.582 185.656 531.31C185.477 531.037 185.388 530.696 185.391 530.287V523.886ZM193.687 529.247V525.455H195.23V532H193.734V530.837H193.666C193.518 531.203 193.275 531.503 192.937 531.736C192.602 531.969 192.189 532.085 191.697 532.085C191.268 532.085 190.889 531.99 190.559 531.8C190.233 531.607 189.977 531.327 189.792 530.96C189.608 530.591 189.515 530.145 189.515 529.622V525.455H191.058V529.384C191.058 529.798 191.172 530.128 191.399 530.372C191.626 530.616 191.924 530.739 192.294 530.739C192.521 530.739 192.741 530.683 192.954 530.572C193.167 530.462 193.342 530.297 193.478 530.078C193.618 529.857 193.687 529.58 193.687 529.247ZM196.816 532V525.455H198.312V526.545H198.38C198.499 526.168 198.704 525.876 198.994 525.672C199.286 525.464 199.62 525.361 199.995 525.361C200.08 525.361 200.175 525.365 200.281 525.374C200.388 525.379 200.478 525.389 200.549 525.403V526.822C200.484 526.8 200.38 526.78 200.238 526.763C200.099 526.743 199.964 526.733 199.833 526.733C199.552 526.733 199.299 526.794 199.075 526.916C198.853 527.036 198.678 527.202 198.55 527.415C198.423 527.628 198.359 527.874 198.359 528.152V532H196.816ZM204.202 532.128C203.546 532.128 202.979 531.991 202.502 531.719C202.027 531.443 201.662 531.054 201.407 530.551C201.151 530.045 201.023 529.45 201.023 528.766C201.023 528.092 201.151 527.501 201.407 526.993C201.665 526.482 202.026 526.084 202.489 525.8C202.952 525.513 203.496 525.369 204.121 525.369C204.525 525.369 204.905 525.435 205.263 525.565C205.624 525.693 205.942 525.892 206.218 526.162C206.496 526.432 206.715 526.776 206.874 527.193C207.033 527.608 207.113 528.102 207.113 528.676V529.149H201.748V528.109H205.634C205.631 527.814 205.567 527.551 205.442 527.321C205.317 527.088 205.142 526.905 204.918 526.771C204.696 526.638 204.438 526.571 204.142 526.571C203.827 526.571 203.55 526.648 203.311 526.801C203.073 526.952 202.887 527.151 202.753 527.398C202.623 527.642 202.556 527.911 202.553 528.203V529.111C202.553 529.491 202.623 529.818 202.762 530.091C202.901 530.361 203.096 530.568 203.346 530.713C203.596 530.855 203.888 530.926 204.223 530.926C204.448 530.926 204.651 530.895 204.833 530.832C205.015 530.767 205.172 530.672 205.306 530.547C205.439 530.422 205.54 530.267 205.608 530.082L207.049 530.244C206.958 530.625 206.784 530.957 206.529 531.241C206.276 531.523 205.952 531.741 205.557 531.898C205.162 532.051 204.711 532.128 204.202 532.128Z" fill="#1E1E1E"/>
<path d="M148.816 469.983C149.359 470.085 149.881 469.727 149.983 469.184L151.641 460.338C151.743 459.796 151.386 459.273 150.843 459.171C150.3 459.069 149.778 459.427 149.676 459.97L148.201 467.833L140.338 466.359C139.796 466.257 139.273 466.614 139.171 467.157C139.069 467.7 139.427 468.222 139.97 468.324L148.816 469.983ZM83.1747 374.565L148.175 469.565L149.825 468.435L84.8253 373.435L83.1747 374.565Z" fill="url(#paint8_linear_128_323)"/>
<path d="M249.963 188.269C250.112 187.737 249.801 187.185 249.269 187.037L240.6 184.618C240.068 184.469 239.516 184.78 239.368 185.312C239.22 185.844 239.53 186.396 240.062 186.544L247.768 188.694L245.618 196.4C245.469 196.932 245.78 197.484 246.312 197.632C246.844 197.78 247.396 197.47 247.544 196.938L249.963 188.269ZM139.491 250.871L249.491 188.871L248.509 187.129L138.509 249.129L139.491 250.871Z" fill="url(#paint9_linear_128_323)"/>
<circle cx="288.5" cy="160.5" r="44.5" fill="url(#paint10_linear_128_323)"/>
<path d="M283.96 147.818V158H282.32L277.522 151.065H277.438V158H275.593V147.818H277.244L282.036 154.759H282.126V147.818H283.96ZM285.97 158V147.818H292.493V149.364H287.815V152.129H292.045V153.675H287.815V158H285.97ZM293.726 149.364V147.818H301.849V149.364H298.702V158H296.873V149.364H293.726ZM267.585 167.617C267.538 167.183 267.343 166.845 266.998 166.603C266.656 166.361 266.212 166.24 265.665 166.24C265.281 166.24 264.951 166.298 264.676 166.414C264.401 166.53 264.191 166.687 264.045 166.886C263.899 167.085 263.824 167.312 263.821 167.567C263.821 167.78 263.869 167.964 263.965 168.119C264.065 168.275 264.199 168.408 264.368 168.517C264.537 168.623 264.724 168.713 264.93 168.786C265.135 168.858 265.342 168.92 265.551 168.969L266.506 169.208C266.89 169.298 267.26 169.419 267.614 169.571C267.972 169.723 268.292 169.916 268.574 170.148C268.859 170.38 269.084 170.66 269.25 170.988C269.416 171.316 269.499 171.701 269.499 172.141C269.499 172.738 269.346 173.263 269.041 173.717C268.736 174.168 268.295 174.521 267.719 174.776C267.145 175.028 266.451 175.154 265.636 175.154C264.844 175.154 264.156 175.031 263.572 174.786C262.992 174.541 262.538 174.183 262.21 173.712C261.885 173.242 261.71 172.668 261.683 171.992H263.498C263.524 172.347 263.634 172.642 263.826 172.877C264.018 173.112 264.268 173.288 264.577 173.404C264.888 173.52 265.236 173.578 265.621 173.578C266.022 173.578 266.373 173.518 266.675 173.399C266.98 173.277 267.218 173.107 267.391 172.892C267.563 172.673 267.651 172.418 267.654 172.126C267.651 171.861 267.573 171.643 267.42 171.47C267.268 171.295 267.054 171.149 266.779 171.033C266.507 170.913 266.189 170.807 265.825 170.714L264.666 170.416C263.828 170.201 263.165 169.874 262.678 169.437C262.194 168.996 261.952 168.411 261.952 167.682C261.952 167.082 262.114 166.557 262.439 166.106C262.767 165.655 263.213 165.305 263.776 165.057C264.34 164.805 264.978 164.679 265.69 164.679C266.413 164.679 267.046 164.805 267.589 165.057C268.136 165.305 268.566 165.652 268.877 166.096C269.189 166.537 269.349 167.044 269.359 167.617H267.585ZM275.931 171.788V167.364H277.73V175H275.985V173.643H275.906C275.733 174.07 275.45 174.42 275.056 174.692C274.664 174.964 274.182 175.099 273.609 175.099C273.108 175.099 272.666 174.988 272.281 174.766C271.9 174.541 271.602 174.214 271.387 173.787C271.171 173.356 271.063 172.836 271.063 172.226V167.364H272.863V171.947C272.863 172.431 272.996 172.816 273.261 173.101C273.526 173.386 273.874 173.528 274.305 173.528C274.57 173.528 274.827 173.464 275.075 173.335C275.324 173.205 275.528 173.013 275.687 172.758C275.849 172.499 275.931 172.176 275.931 171.788ZM279.581 177.864V167.364H281.351V168.626H281.455C281.548 168.441 281.679 168.244 281.848 168.035C282.017 167.823 282.246 167.642 282.534 167.493C282.822 167.34 283.19 167.264 283.638 167.264C284.228 167.264 284.76 167.415 285.234 167.717C285.711 168.015 286.089 168.457 286.367 169.044C286.649 169.627 286.79 170.343 286.79 171.192C286.79 172.03 286.652 172.743 286.377 173.33C286.102 173.916 285.728 174.364 285.254 174.672C284.78 174.98 284.243 175.134 283.643 175.134C283.205 175.134 282.842 175.061 282.554 174.915C282.266 174.77 282.034 174.594 281.858 174.388C281.686 174.18 281.551 173.982 281.455 173.797H281.381V177.864H279.581ZM281.346 171.182C281.346 171.676 281.415 172.108 281.555 172.479C281.697 172.851 281.901 173.141 282.166 173.349C282.435 173.555 282.759 173.658 283.141 173.658C283.538 173.658 283.871 173.552 284.14 173.339C284.408 173.124 284.611 172.831 284.746 172.46C284.886 172.085 284.955 171.659 284.955 171.182C284.955 170.708 284.887 170.287 284.751 169.919C284.616 169.551 284.413 169.263 284.145 169.054C283.876 168.845 283.542 168.741 283.141 168.741C282.756 168.741 282.43 168.842 282.161 169.044C281.893 169.246 281.689 169.53 281.55 169.894C281.414 170.259 281.346 170.688 281.346 171.182ZM288.331 177.864V167.364H290.101V168.626H290.205C290.298 168.441 290.429 168.244 290.598 168.035C290.767 167.823 290.996 167.642 291.284 167.493C291.572 167.34 291.94 167.264 292.388 167.264C292.978 167.264 293.51 167.415 293.984 167.717C294.461 168.015 294.839 168.457 295.117 169.044C295.399 169.627 295.54 170.343 295.54 171.192C295.54 172.03 295.402 172.743 295.127 173.33C294.852 173.916 294.478 174.364 294.004 174.672C293.53 174.98 292.993 175.134 292.393 175.134C291.955 175.134 291.592 175.061 291.304 174.915C291.016 174.77 290.784 174.594 290.608 174.388C290.436 174.18 290.301 173.982 290.205 173.797H290.131V177.864H288.331ZM290.096 171.182C290.096 171.676 290.165 172.108 290.305 172.479C290.447 172.851 290.651 173.141 290.916 173.349C291.185 173.555 291.509 173.658 291.891 173.658C292.288 173.658 292.621 173.552 292.89 173.339C293.158 173.124 293.361 172.831 293.496 172.46C293.636 172.085 293.705 171.659 293.705 171.182C293.705 170.708 293.637 170.287 293.501 169.919C293.366 169.551 293.163 169.263 292.895 169.054C292.626 168.845 292.292 168.741 291.891 168.741C291.506 168.741 291.18 168.842 290.911 169.044C290.643 169.246 290.439 169.53 290.3 169.894C290.164 170.259 290.096 170.688 290.096 171.182ZM300.412 175.149C299.666 175.149 299.02 174.985 298.473 174.657C297.926 174.329 297.502 173.87 297.2 173.28C296.902 172.69 296.753 172 296.753 171.212C296.753 170.423 296.902 169.732 297.2 169.138C297.502 168.545 297.926 168.085 298.473 167.756C299.02 167.428 299.666 167.264 300.412 167.264C301.158 167.264 301.804 167.428 302.351 167.756C302.898 168.085 303.32 168.545 303.619 169.138C303.92 169.732 304.071 170.423 304.071 171.212C304.071 172 303.92 172.69 303.619 173.28C303.32 173.87 302.898 174.329 302.351 174.657C301.804 174.985 301.158 175.149 300.412 175.149ZM300.422 173.707C300.826 173.707 301.164 173.596 301.436 173.374C301.708 173.149 301.91 172.847 302.043 172.469C302.179 172.092 302.246 171.671 302.246 171.207C302.246 170.739 302.179 170.317 302.043 169.939C301.91 169.558 301.708 169.254 301.436 169.029C301.164 168.804 300.826 168.691 300.422 168.691C300.008 168.691 299.663 168.804 299.388 169.029C299.116 169.254 298.912 169.558 298.776 169.939C298.644 170.317 298.577 170.739 298.577 171.207C298.577 171.671 298.644 172.092 298.776 172.469C298.912 172.847 299.116 173.149 299.388 173.374C299.663 173.596 300.008 173.707 300.422 173.707ZM305.599 175V167.364H307.344V168.636H307.423C307.562 168.196 307.801 167.856 308.139 167.617C308.48 167.375 308.87 167.254 309.307 167.254C309.407 167.254 309.518 167.259 309.64 167.269C309.766 167.276 309.871 167.287 309.954 167.304V168.96C309.877 168.933 309.756 168.91 309.591 168.89C309.428 168.867 309.271 168.855 309.118 168.855C308.79 168.855 308.495 168.926 308.233 169.069C307.975 169.208 307.771 169.402 307.622 169.651C307.473 169.899 307.398 170.186 307.398 170.511V175H305.599ZM315.373 167.364V168.756H310.983V167.364H315.373ZM312.067 165.534H313.866V172.703C313.866 172.945 313.903 173.131 313.976 173.26C314.052 173.386 314.151 173.472 314.274 173.518C314.397 173.565 314.532 173.588 314.682 173.588C314.794 173.588 314.897 173.58 314.99 173.563C315.086 173.547 315.159 173.532 315.209 173.518L315.512 174.925C315.416 174.959 315.278 174.995 315.099 175.035C314.924 175.075 314.708 175.098 314.453 175.104C314.002 175.118 313.596 175.05 313.235 174.901C312.874 174.748 312.587 174.513 312.375 174.195C312.166 173.876 312.063 173.479 312.067 173.001V165.534Z" fill="#1E1E1E"/>
<defs>
<linearGradient id="paint0_linear_128_323" x1="110.5" y1="227.5" x2="41.5" y2="369" gradientUnits="userSpaceOnUse">
<stop stop-color="#43C2E3"/>
<stop offset="1" stop-color="#AAAAAA" stop-opacity="0.75"/>
</linearGradient>
<linearGradient id="paint1_linear_128_323" x1="203.847" y1="11.8471" x2="136.347" y2="105.347" gradientUnits="userSpaceOnUse">
<stop stop-color="white"/>
<stop offset="0.0001" stop-color="white"/>
<stop offset="1" stop-color="#A3A1A1" stop-opacity="0.7"/>
</linearGradient>
<linearGradient id="paint2_linear_128_323" x1="147.131" y1="116.384" x2="84.5271" y2="233.688" gradientUnits="userSpaceOnUse">
<stop stop-color="#41AD68"/>
<stop offset="1" stop-color="white" stop-opacity="0"/>
</linearGradient>
<linearGradient id="paint3_linear_128_323" x1="387" y1="268.5" x2="295" y2="317" gradientUnits="userSpaceOnUse">
<stop stop-color="white"/>
<stop offset="1" stop-color="#9E9E9E" stop-opacity="0.68"/>
</linearGradient>
<linearGradient id="paint4_linear_128_323" x1="287.491" y1="292.624" x2="136.386" y2="305.187" gradientUnits="userSpaceOnUse">
<stop stop-color="#41AD68"/>
<stop offset="1" stop-color="white" stop-opacity="0"/>
</linearGradient>
<linearGradient id="paint5_linear_128_323" x1="320.5" y1="481.5" x2="254" y2="401" gradientUnits="userSpaceOnUse">
<stop stop-color="white"/>
<stop offset="1" stop-color="#9F9F9F" stop-opacity="0.89"/>
</linearGradient>
<linearGradient id="paint6_linear_128_323" x1="243.426" y1="402.142" x2="116.667" y2="347.158" gradientUnits="userSpaceOnUse">
<stop stop-color="#41AD68"/>
<stop offset="1" stop-color="white" stop-opacity="0"/>
</linearGradient>
<linearGradient id="paint7_linear_128_323" x1="182" y1="571" x2="147.5" y2="476" gradientUnits="userSpaceOnUse">
<stop stop-color="white"/>
<stop offset="1" stop-color="#B6B6B6"/>
</linearGradient>
<linearGradient id="paint8_linear_128_323" x1="149.43" y1="467.192" x2="71.4911" y2="368.571" gradientUnits="userSpaceOnUse">
<stop stop-color="#41AD68"/>
<stop offset="1" stop-color="white" stop-opacity="0"/>
</linearGradient>
<linearGradient id="paint9_linear_128_323" x1="247.13" y1="187.474" x2="132.504" y2="263.997" gradientUnits="userSpaceOnUse">
<stop stop-color="#41AD68"/>
<stop offset="1" stop-color="white" stop-opacity="0"/>
</linearGradient>
<linearGradient id="paint10_linear_128_323" x1="321.5" y1="134.5" x2="249" y2="181.5" gradientUnits="userSpaceOnUse">
<stop stop-color="white"/>
<stop offset="1" stop-color="#9C9C9C" stop-opacity="0.64"/>
</linearGradient>
</defs>
</svg>
